<?xml version="1.0" encoding="UTF-8"?>
<svg id="Layer_1" data-name="Layer 1" xmlns="http://www.w3.org/2000/svg" viewBox="0 0 2377.53 563.74">
  <defs>
    <style>
      .cls-1 {
        fill: #faf9f9;
      }

      .cls-1, .cls-2 {
        stroke-width: 0px;
      }

      .cls-2 {
        fill: #a07db8;
        fill-rule: evenodd;
      }
    </style>
  </defs>
  <path class="cls-1" d="M214.35,305.74c24.59.9,113.56,2.42,146.69-21.59,38.62-28,57.99-63.75,52.09-118.05-6.46-60.04-57.03-107.43-100.2-116.76-34.02-7.36-121.37-12.31-151.46-10.91-5.28.23-9.43,4.61-9.37,9.89l.17,37.5c.51,1.63-7.47,5.79,87.68,5.06,129.17-.96,146.4,107.93,95.82,141.04-40.42,26.48-85.94,20.97-102.62,17.71-3.71-.73-6.23-4.22-5.78-8.04l3.93-34.23c.39-3.32,3.26-5.73,6.57-5.51,16.39,1.01,62.26,3.43,72.64-.39,21.05-7.76,15.89-40.02-6.12-44.97-15.16-3.37-92.85-4.78-109.24,1.29-12.46,4.61-20.71,65.21-21.22,89.49-.11,4.16-3.42,7.48-7.58,7.48h-50.02c-1.68,0-3.14,1.18-3.48,2.81l-9.15,41.43c-.45,2.02.95,4.05,3.03,4.22l44.63,4.61c1.85.17,3.14,1.91,2.86,3.71l-13.75,136.88h53.22l13.3-136.54c.56-3.6,3.7-6.24,7.35-6.13Z"/>
  <path class="cls-1" d="M395.16,417.5c6.57,0,12.91-3.2,19.03-9.61,6.12-6.41,11-15.07,14.76-26.03,3.76-10.96,5.56-23.33,5.56-37.16,0-6.8-1.85-12.37-5.5-16.81s-8.53-6.69-14.54-6.69c-6.51,0-12.69,3.43-18.52,10.34-5.84,6.91-10.55,15.96-14.03,27.21-3.48,11.24-5.22,22.43-5.22,33.5,0,8.43,1.57,14.73,4.77,18.89,3.2,4.16,7.75,6.3,13.64,6.3l.06.06ZM378.27,452.29c-14.03,0-25.04-5.06-33.12-15.23-8.08-10.17-12.07-24.45-12.07-42.78s3.42-36.93,10.33-54.08c6.9-17.15,15.89-30.41,27.06-39.86,11.17-9.44,23.41-14.11,36.77-14.11,9.26,0,17.23,2.02,23.97,6.01,6.74,3.99,11.96,9.84,15.66,17.48h1.12l8.14-20.46h33.18l-34.08,160.16h-32.78l2.02-20.8h-.56c-12.8,15.74-28.01,23.67-45.64,23.67Z"/>
  <path class="cls-1" d="M540.34,251.78c0-8.32,2.25-14.62,6.79-18.83,4.55-4.22,10.95-6.35,19.25-6.35,6.96,0,12.24,1.46,15.89,4.44,3.65,2.98,5.45,7.2,5.45,12.76,0,7.65-2.08,13.83-6.29,18.55-4.21,4.72-10.67,7.08-19.48,7.08-14.43,0-21.61-5.85-21.61-17.59v-.06ZM542.64,449.48h-43.06l33.91-160.15h43.06l-33.91,160.15Z"/>
  <path class="cls-1" d="M680.84,317.33c-8.42,0-16.34,3.82-23.75,11.47-7.41,7.65-12.29,16.98-14.6,27.94h6.46c14.76,0,26.33-2.3,34.58-6.97,8.25-4.67,12.35-10.91,12.35-18.83,0-9.05-5-13.6-15.05-13.6ZM657.38,452.3c-20.04,0-35.59-5.4-46.65-16.19-11.06-10.79-16.62-26.03-16.62-45.7s3.93-37.78,11.79-54.08c7.86-16.3,18.53-28.73,32-37.27,13.47-8.54,28.69-12.82,45.64-12.82s30.03,3.88,39.46,11.69c9.43,7.81,14.15,18.44,14.15,32.04,0,17.88-7.97,31.65-23.91,41.32-15.94,9.67-38.68,14.56-68.26,14.56h-7.3l-.28,3.04v2.87c0,8.71,2.47,15.57,7.35,20.57,4.88,5,11.96,7.53,21.11,7.53,8.31,0,15.83-.9,22.62-2.7,6.79-1.8,14.99-5,24.59-9.61v32.55c-16.39,8.21-35.03,12.31-55.8,12.31l.11-.11Z"/>
  <path class="cls-1" d="M1093.51,407.05c6.57,0,12.91-3.2,19.03-9.61,6.12-6.41,11-15.07,14.76-26.03,3.76-10.96,5.56-23.33,5.56-37.16,0-6.8-1.85-12.37-5.5-16.81-3.65-4.44-8.53-6.69-14.54-6.69-6.51,0-12.69,3.43-18.53,10.34-5.84,6.91-10.55,15.96-14.03,27.21-3.48,11.24-5.22,22.43-5.22,33.5,0,8.43,1.57,14.73,4.77,18.89,3.2,4.16,7.75,6.3,13.64,6.3l.06.06ZM1076.61,441.84c-14.03,0-25.04-5.06-33.12-15.23-8.08-10.17-12.07-24.45-12.07-42.78s3.42-36.93,10.33-54.08c6.9-17.15,15.89-30.41,27.06-39.86,11.17-9.44,23.41-14.11,36.77-14.11,9.26,0,17.23,2.02,23.97,6.01,6.74,3.99,11.96,9.84,15.66,17.48h1.12l8.14-20.46h33.18l-34.07,160.16h-32.78l2.02-20.8h-.56c-12.8,15.74-28.01,23.67-45.64,23.67Z"/>
  <path class="cls-1" d="M1311.26,386.13c0,17.93-5.95,31.76-17.79,41.32-11.84,9.56-28.41,14.39-49.57,14.39-10.22,0-19.09-.73-26.66-2.14-7.58-1.41-14.65-3.82-21.22-7.14v-35.53c14.99,8.6,30.2,12.87,45.64,12.87,7.63,0,13.87-1.57,18.75-4.67,4.88-3.09,7.3-7.31,7.3-12.7,0-4.1-1.74-7.76-5.28-11.02s-9.77-7.36-18.75-12.31c-11.56-6.52-19.59-12.99-24.19-19.39-4.6-6.41-6.85-14.05-6.85-22.88,0-16.25,5.28-28.84,15.83-37.78,10.55-8.94,25.6-13.38,45.13-13.38s36.49,4.55,51.93,13.6l-14.15,30.8c-13.36-8.04-25.65-12.03-36.94-12.03-5.45,0-9.82,1.24-13.14,3.65-3.31,2.42-5,5.73-5,9.84,0,3.71,1.52,6.97,4.6,9.84,3.09,2.87,8.76,6.35,17.18,10.68,11.73,6.01,20.21,12.54,25.49,19.62,5.28,7.08,7.86,15.18,7.86,24.34h-.17Z"/>
  <path class="cls-1" d="M1471.08,438.97h-43.06l19.59-93.54c1.52-6.52,2.3-12.2,2.3-17.03,0-11.75-5.17-17.6-15.44-17.6-8.76,0-16.73,5.45-23.91,16.36-7.19,10.91-12.8,26.08-16.9,45.53l-14.03,66.33h-43.06l47.21-222.95h43.06c-3.71,17.31-6.57,30.58-8.59,39.86-2.02,9.28-6.12,24-12.29,44.3h1.12c5.89-7.36,12.52-13.27,19.76-17.71s15.66-6.69,25.21-6.69c13.14,0,23.35,3.99,30.54,11.97,7.19,7.98,10.78,19.39,10.78,34.18,0,6.97-1.12,15.57-3.31,25.8l-19.03,91.29.06-.11Z"/>
  <path class="cls-1" d="M774.03,281.07c4.88-24.17,13.36-46.32,25.43-66.33,12.07-20.07,26.95-37.33,44.68-51.89,17.74-14.56,37.22-25.8,58.44-33.73,21.22-7.98,43.17-11.92,65.79-11.92,33.01,0,60.8,7.87,83.42,23.67,22.62,15.74-21.11,59.59-29.36,51.66-8.25-7.93-17.91-13.77-28.91-17.43-11-3.65-22.45-5.51-34.41-5.51-19.59,0-37.84,4.67-54.79,14-16.95,9.33-31.49,22.43-43.56,39.24-12.07,16.86-20.27,36.26-24.53,58.29-4.27,22.04-3.82,41.37,1.4,58.07,5.16,16.7,14.43,29.79,27.73,39.24,13.3,9.5,29.86,14.22,49.74,14.22,12.24,0,24.76-1.91,37.61-5.73,12.86-3.82,24.98-10.79,37.39-19.51,23.97-16.86,37.39,35.92,8.03,52.56-29.36,16.7-60.96,25.02-94.93,25.02-22.62,0-42.94-3.99-60.96-11.92-18.02-7.98-33.01-19.28-44.91-33.95-11.9-14.67-19.93-32.04-24.08-52.11-4.15-20.07-3.87-41.99.67-65.88l.11-.06Z"/>
  <path class="cls-2" d="M1956.33,383.44c-7.75,7.59-20.77,4.78-24.64-5.4-5.16-13.83-7.58-28.89-6.57-44.52v-.34c.95-13.66,18.19-18.94,26.66-8.21l19.54,24.96c4.72,6.07,4.15,14.67-1.29,20.07l-13.7,13.44ZM2142.03,347.69c-3.87,59.36-55.58,104.33-115.47,100.4-17.23-1.12-33.29-6.18-47.32-14.28-11.62-6.69-9.43-24.06,3.48-27.66l91.56-25.18c13.81-3.77,15.04-22.88,1.85-28.44l-124.29-52.45c-8.98-3.77-12.01-14.95-6.29-22.82,21.16-28.95,56.42-46.77,95.04-44.24,59.9,3.94,105.26,55.26,101.38,114.62l.06.06Z"/>
  <path class="cls-1" d="M1695.06,309h9.82c16.62,0,29.64-4.05,39.18-12.09,9.54-8.09,14.26-18.89,14.26-32.49,0-21.08-11.4-31.59-34.19-31.59h-12.97l-16.11,76.17ZM1812.16,263.02c0,28.22-9.88,50.37-29.7,66.44-19.82,16.08-47.1,24.12-81.96,24.12h-15.1l-19.09,91.29h-53.44l54.17-256.62h59.22c28.29,0,49.68,6.24,64.16,18.72,14.48,12.48,21.72,31.14,21.72,56.1v-.06Z"/>
  <polygon class="cls-1" points="1871.06 444.87 1818.29 444.87 1876.11 171.78 1928.88 171.78 1871.06 444.87"/>
  <path class="cls-1" d="M2149.6,248.63h51.7l9.82,90.9c1.63,14.28,2.47,31.42,2.47,51.44h1.07c2.36-5.96,4.88-12.99,7.69-20.97,2.81-7.98,6.62-16.98,11.4-26.93l45.58-94.44h57.31l-119.18,224.3c-20.66,38.84-48.9,58.29-84.65,58.29-10.5,0-19.09-1.12-25.77-3.32v-42.1c7.97,1.52,14.71,2.3,20.32,2.3,9.82,0,18.41-2.81,25.88-8.43,7.41-5.62,14.26-14.33,20.6-26.14l4.55-8.6-28.74-196.24-.06-.06Z"/>
</svg>